<?xml version="1.0" encoding="UTF-8" standalone="no"?>
<!-- Created with Inkscape (http://www.inkscape.org/) -->

<svg
   width="32.5mm"
   height="51.5mm"
   viewBox="0 0 32.5 51.5"
   version="1.1"
   id="svg5"
   inkscape:version="1.1 (c68e22c387, 2021-05-23)"
   sodipodi:docname="logoWeb.svg"
   xmlns:inkscape="http://www.inkscape.org/namespaces/inkscape"
   xmlns:sodipodi="http://sodipodi.sourceforge.net/DTD/sodipodi-0.dtd"
   xmlns="http://www.w3.org/2000/svg"
   xmlns:svg="http://www.w3.org/2000/svg">
  <sodipodi:namedview
     id="namedview7"
     pagecolor="#ffffff"
     bordercolor="#666666"
     borderopacity="1.0"
     inkscape:pageshadow="2"
     inkscape:pageopacity="0.0"
     inkscape:pagecheckerboard="0"
     inkscape:document-units="mm"
     showgrid="false"
     inkscape:zoom="4"
     inkscape:cx="44.625"
     inkscape:cy="96.125"
     inkscape:window-width="3440"
     inkscape:window-height="1376"
     inkscape:window-x="0"
     inkscape:window-y="27"
     inkscape:window-maximized="1"
     inkscape:current-layer="layer1"
     width="209mm" />
  <defs
     id="defs2" />
  <g
     inkscape:label="Capa 1"
     inkscape:groupmode="layer"
     id="layer1">
    <text
       xml:space="preserve"
       style="font-style:normal;font-variant:normal;font-weight:normal;font-stretch:normal;font-size:25.4px;line-height:1.25;font-family:Carlito;-inkscape-font-specification:Carlito;stroke-width:0.264583"
       x="90.69709"
       y="108.84428"
       id="text20697"><tspan
         sodipodi:role="line"
         id="tspan20695"
         style="font-style:normal;font-variant:normal;font-weight:normal;font-stretch:normal;font-family:Carlito;-inkscape-font-specification:Carlito;stroke-width:0.264583"
         x="90.69709"
         y="108.84428"></tspan></text>
    <text
       xml:space="preserve"
       style="font-size:50.8px;line-height:1.25;font-family:sans-serif;stroke-width:0.264583"
       x="59.065807"
       y="56.197178"
       id="text40383"><tspan
         sodipodi:role="line"
         id="tspan40381"
         style="stroke-width:0.264583"
         x="59.065807"
         y="56.197178"></tspan></text>
    <text
       xml:space="preserve"
       style="font-size:50.8px;line-height:1.25;font-family:sans-serif;stroke-width:0.264583"
       x="-3.3059888"
       y="50.99987"
       id="text54637"><tspan
         sodipodi:role="line"
         id="tspan54635"
         style="font-style:normal;font-variant:normal;font-weight:normal;font-stretch:normal;font-family:'Roboto Mono Light for Powerline';-inkscape-font-specification:'Roboto Mono Light for Powerline';stroke-width:0.264583"
         x="-3.3059888"
         y="50.99987">S</tspan></text>
    <text
       xml:space="preserve"
       style="font-size:50.8px;line-height:1.25;font-family:sans-serif;stroke-width:0.264583"
       x="4.6257124"
       y="36.177872"
       id="text65379"><tspan
         sodipodi:role="line"
         id="tspan65377"
         style="font-style:normal;font-variant:normal;font-weight:normal;font-stretch:normal;font-family:'Roboto Mono Light for Powerline';-inkscape-font-specification:'Roboto Mono Light for Powerline';stroke-width:0.264583"
         x="4.6257124"
         y="36.177872">D</tspan></text>
    <path
       style="fill:#ffffff;stroke-width:0.227303"
       d="m 42.61927,194.29553 c -0.562574,-0.0454 -2.291505,-0.28543 -3.842069,-0.53339 C 21.252359,190.95971 7.8314152,180.96963 2.702267,166.90925 1.5455396,163.73834 0.58201111,158.84839 0.57242114,156.10018 l -0.004164,-1.19334 H 6.1371749 11.706093 v 0.65689 c 0,1.13434 0.88034,4.99547 1.692032,7.42118 2.697011,8.0599 8.441092,14.55497 16.060276,18.16001 5.528865,2.616 11.182389,3.76476 18.502484,3.75958 17.567831,-0.0124 30.267119,-8.52533 32.17418,-21.5678 0.392293,-2.6829 0.1697,-8.06779 -0.425279,-10.28816 -0.672664,-2.51028 -1.740555,-4.94801 -3.048464,-6.95887 -1.551344,-2.38514 -5.219767,-5.97678 -8.015885,-7.84812 l -2.273027,-1.52125 -16.081672,0.001 -16.081671,10e-4 v -6.15419 -6.15419 l -1.420642,-0.59763 c -0.781353,-0.3287 -3.11343,-1.44405 -5.182394,-2.47856 C 14.404928,114.73732 7.0338127,106.31182 4.9726805,95.467165 4.4261478,92.59158 4.4353122,86.664512 4.9907804,83.761072 6.2362089,77.2512 8.8684284,72.471868 14.075895,67.265196 19.136463,62.2054 25.063045,58.778131 32.333819,56.706862 l 1.875248,-0.534214 V 28.243813 0.31497497 l 19.036608,0.0905958 c 19.940242,0.0948963 19.991713,0.0973176 25.464952,1.19793953 9.327328,1.8756469 18.676478,6.8077761 25.591203,13.5005967 9.97423,9.65415 15.93713,22.708791 17.91489,39.221256 0.41885,3.497046 0.41885,24.9158 0,28.412846 -1.48554,12.40289 -4.94657,22.219351 -10.89919,30.913181 -6.79478,9.9238 -16.629303,17.17388 -27.897412,20.56616 -1.000133,0.3011 -1.858969,0.57669 -1.908523,0.61244 -0.04956,0.0357 0.615304,0.81191 1.477468,1.7248 4.264902,4.51588 7.352354,10.69382 8.367951,16.74416 0.419758,2.50066 0.4815,8.32402 0.114193,10.77011 -1.029379,6.85514 -4.07415,12.67988 -9.409389,18.00046 -2.948563,2.94046 -5.779635,4.93081 -10.006839,7.0352 -7.356686,3.6623 -15.364495,5.4036 -24.433655,5.31309 -2.188555,-0.0218 -4.43948,-0.0769 -5.002054,-0.12228 z m 31.111308,-67.4709 c 9.022101,-1.31186 16.923012,-5.31352 23.327706,-11.81504 5.722976,-5.80949 9.871056,-13.47676 12.263016,-22.66685 1.75087,-6.726946 2.1619,-10.370964 2.32687,-20.628715 0.24398,-15.17111 -0.51806,-21.935072 -3.48274,-30.913177 C 103.03497,25.263989 92.141552,14.573571 77.8512,11.051532 73.15282,9.8935559 72.262972,9.8333803 58.246336,9.7257601 L 45.1196,9.6249725 V 32.031993 54.439014 l 1.761597,1.91e-4 c 9.447546,9.09e-4 19.240736,2.912646 26.672964,7.93018 10.001677,6.752183 16.335948,17.615401 17.167254,29.441689 l 0.153142,2.178623 H 85.27209 79.669622 v -0.589378 c 0,-1.148445 -0.945791,-5.242966 -1.812424,-7.846347 C 74.629031,75.856493 67.928377,69.066914 58.494146,65.933952 54.889819,64.737009 53.087415,64.425766 48.926922,64.281858 L 45.1196,64.150168 v 26.50023 26.500232 l 3.352716,1.04278 c 7.944789,2.47104 14.053453,4.8294 19.036712,7.34946 1.750175,0.88507 3.322437,1.61457 3.493916,1.62113 0.171482,0.007 1.398917,-0.14617 2.727634,-0.33937 z M 34.125431,66.326656 c -0.131685,-0.131686 -2.816088,0.919806 -4.465395,1.749113 -6.694985,3.366381 -11.426151,8.842071 -13.118563,15.18297 -0.521149,1.95257 -0.590298,2.652737 -0.599604,6.071251 -0.01144,4.201778 0.202049,5.505771 1.411205,8.619735 0.946138,2.436605 2.549637,4.713625 5.13901,7.297535 2.560423,2.55502 5.397682,4.58452 9.103001,6.51138 l 2.500331,1.30024 0.0579,-23.323223 c 0.03184,-12.827771 0.0193,-23.36182 -0.02788,-23.409001 z"
       id="path117910"
       transform="scale(0.26458333)" />
  </g>
</svg>
