<?xml version="1.0" encoding="UTF-8" standalone="no"?>
<!-- Created with Inkscape (http://www.inkscape.org/) -->

<svg
   width="136mm"
   height="121mm"
   viewBox="0 0 136 121"
   version="1.1"
   id="svg5"
   xmlns="http://www.w3.org/2000/svg"
   xmlns:svg="http://www.w3.org/2000/svg">
  <defs
     id="defs2" />
  <g
     id="layer1">
    <path
       d="m 39.672863,93.650535 c -5.918434,-0.30231 -5.806985,-8.626823 -2.65e-4,-8.915901 16.448624,0.05718 59.833173,0.01535 76.804892,0.02727 4.64194,0 8.61333,-3.158951 9.6574,-7.681495 l 9.63701,-41.731351 c 0.55195,-2.389399 -0.005,-4.86245 -1.52772,-6.784611 -1.5227,-1.922161 -3.80223,-3.04009 -6.25437,-3.04009 -6.8275,0 -64.782192,-0.262341 -94.466485,-0.380673 L 28.817857,7.6843401 C 27.688279,3.5120264 23.880755,0.59820936 19.558342,0.59820936 H 4.4844292 c -2.1929734,0 -3.97085942,1.77788604 -3.97085942,3.97086004 0,2.1929727 1.77788602,3.9708587 3.97085942,3.9708587 H 19.558342 c 0.744139,0 1.399331,0.501652 1.592844,1.215613 L 39.222567,76.803768 c -3.177481,0.11542 -6.137095,1.407802 -8.381425,3.684958 -2.358161,2.393105 -3.624601,5.560792 -3.566097,8.919874 0.117008,6.717908 5.678594,12.1834 12.397818,12.1834 h 5.790043 c -0.860618,1.80647 -1.343739,3.82605 -1.343739,5.95655 0,7.66376 6.234779,13.89854 13.898537,13.89854 7.663759,0 13.898538,-6.23478 13.898538,-13.89854 0,-2.13076 -0.483386,-4.15008 -1.344003,-5.95655 h 25.073592 c -0.85982,1.80594 -1.34294,3.82446 -1.34294,5.95443 0,7.66376 6.235039,13.89854 13.898539,13.89854 7.66376,0 13.8988,-6.23504 13.8988,-13.89854 0,-2.21283 -0.52257,-4.3052 -1.44645,-6.1641 1.5714,-0.52918 2.70442,-2.011372 2.70442,-3.760932 0,-2.192973 -1.77789,-3.970863 -3.97086,-3.970863 z m 24.301395,13.898275 c 0,3.2847 -2.672123,5.95682 -5.956818,5.95682 -3.284695,0 -5.956819,-2.67212 -5.956819,-5.95682 0,-3.28284 2.669477,-5.9539 5.951789,-5.95655 h 0.01006 c 3.282312,0.003 5.951788,2.67371 5.951788,5.95655 z m 44.227432,5.95471 c -3.28443,0 -5.95682,-2.67239 -5.95682,-5.95682 0,-3.25214 2.62024,-5.90229 5.8602,-5.95444 h 0.19351 c 3.24022,0.0522 5.86046,2.7023 5.86046,5.95444 -2.6e-4,3.28443 -2.67265,5.95682 -5.95735,5.95682 z m 19.81724,-80.008328 c 0.0236,0.02965 0.0201,0.04368 0.0151,0.06645 l -4.0606,17.584289 h -13.7503 l 2.34149,-17.742594 15.39343,0.06194 c 0.0236,5.29e-4 0.0376,5.29e-4 0.0609,0.02991 z M 87.08069,76.819916 v -17.73227 h 14.08384 l -2.340159,17.73227 z m -19.690698,0 -2.35922,-17.73227 h 14.108199 v 17.73227 z m -18.279984,0 h -0.01244 c -0.967831,-2.64e-4 -1.820507,-0.653074 -2.07226,-1.583049 L 42.672715,59.087646 h 14.346186 l 2.35922,17.73227 z m 14.863986,-25.673724 -2.388075,-17.94802 17.552787,0.07068 v 17.877339 z m 23.106696,0 V 33.300884 l 17.47761,0.07042 -2.34572,17.774891 z M 53.569812,33.16561 55.962123,51.145927 H 40.532157 L 35.66653,33.093341 Z m 62.907678,43.654306 h -9.64283 l 2.34016,-17.73227 h 12.96432 l -3.7424,16.205607 c -0.20754,0.899003 -0.99668,1.526663 -1.91925,1.526663 z"
       id="path9"
       style="stroke-width:0.264724;fill:#f9f9f9" />
  </g>
</svg>
